<?xml version="1.0" encoding="UTF-8" standalone="no"?>
<svg
   xmlns:dc="http://purl.org/dc/elements/1.1/"
   xmlns:cc="http://creativecommons.org/ns#"
   xmlns:rdf="http://www.w3.org/1999/02/22-rdf-syntax-ns#"
   xmlns:svg="http://www.w3.org/2000/svg"
   xmlns="http://www.w3.org/2000/svg"
   xmlns:sodipodi="http://sodipodi.sourceforge.net/DTD/sodipodi-0.dtd"
   xmlns:inkscape="http://www.inkscape.org/namespaces/inkscape"
   id="Layer_1"
   data-name="Layer 1"
   viewBox="0 0 595.28 595.28"
   version="1.1"
   sodipodi:docname="logo.svg"
   inkscape:version="0.92.4 (5da689c313, 2019-01-14)">
  <metadata
     id="metadata883">
    <rdf:RDF>
      <cc:Work
         rdf:about="">
        <dc:format>image/svg+xml</dc:format>
        <dc:type
           rdf:resource="http://purl.org/dc/dcmitype/StillImage" />
        <dc:title>ROOOM LOGO 01</dc:title>
      </cc:Work>
    </rdf:RDF>
  </metadata>
  <sodipodi:namedview
     pagecolor="#ffffff"
     bordercolor="#666666"
     borderopacity="1"
     objecttolerance="10"
     gridtolerance="10"
     guidetolerance="10"
     inkscape:pageopacity="0"
     inkscape:pageshadow="2"
     inkscape:window-width="1440"
     inkscape:window-height="837"
     id="namedview881"
     showgrid="false"
     showguides="true"
     inkscape:guide-bbox="true"
     inkscape:zoom="1.0717645"
     inkscape:cx="351.377"
     inkscape:cy="242.10652"
     inkscape:window-x="-8"
     inkscape:window-y="-8"
     inkscape:window-maximized="1"
     inkscape:current-layer="Layer_1">
    <sodipodi:guide
       position="139.95611,223.92978"
       orientation="1,0"
       id="guide885"
       inkscape:locked="false" />
    <sodipodi:guide
       position="278.41849,358.24938"
       orientation="0,1"
       id="guide887"
       inkscape:locked="false" />
    <sodipodi:guide
       position="457.21329,271.82089"
       orientation="1,0"
       id="guide889"
       inkscape:locked="false" />
    <sodipodi:guide
       position="234.2146,250.04883"
       orientation="0,1"
       id="guide891"
       inkscape:locked="false" />
  </sodipodi:namedview>
  <defs
     id="defs852">
    <style
       id="style850">.cls-1{font-size:22.02px;fill:#fff;font-family:Nexa-Heavy, Nexa;font-weight:800;letter-spacing:0.2em;}.cls-2{letter-spacing:0.19em;}.cls-3{letter-spacing:0.19em;}.cls-4{fill:#fef200;}</style>
    <clipPath
       clipPathUnits="userSpaceOnUse"
       id="clipPath899">
      <rect
         style="fill:#f9f9f9;fill-opacity:1;stroke:none"
         id="rect901"
         width="317.2572"
         height="108.20055"
         x="139.95612"
         y="237.03062" />
    </clipPath>
    <clipPath
       clipPathUnits="userSpaceOnUse"
       id="clipPath903">
      <rect
         style="fill:#f9f9f9;fill-opacity:1;stroke:none"
         id="rect905"
         width="317.2572"
         height="108.20055"
         x="139.95612"
         y="237.03062" />
    </clipPath>
    <clipPath
       clipPathUnits="userSpaceOnUse"
       id="clipPath907">
      <rect
         style="fill:#f9f9f9;fill-opacity:1;stroke:none"
         id="rect909"
         width="317.2572"
         height="108.20055"
         x="139.95612"
         y="237.03062" />
    </clipPath>
    <clipPath
       clipPathUnits="userSpaceOnUse"
       id="clipPath911">
      <rect
         style="fill:#f9f9f9;fill-opacity:1;stroke:none"
         id="rect913"
         width="317.2572"
         height="108.20055"
         x="139.95612"
         y="237.03062" />
    </clipPath>
    <clipPath
       clipPathUnits="userSpaceOnUse"
       id="clipPath915">
      <rect
         style="fill:#f9f9f9;fill-opacity:1;stroke:none"
         id="rect917"
         width="317.2572"
         height="108.20055"
         x="139.95612"
         y="237.03062" />
    </clipPath>
    <clipPath
       clipPathUnits="userSpaceOnUse"
       id="clipPath919">
      <rect
         style="fill:#f9f9f9;fill-opacity:1;stroke:none"
         id="rect921"
         width="317.2572"
         height="108.20055"
         x="139.95612"
         y="237.03062" />
    </clipPath>
    <clipPath
       clipPathUnits="userSpaceOnUse"
       id="clipPath923">
      <rect
         style="fill:#f9f9f9;fill-opacity:1;stroke:none"
         id="rect925"
         width="317.2572"
         height="108.20055"
         x="139.95612"
         y="237.03062" />
    </clipPath>
  </defs>
  <title
     id="title854">ROOOM LOGO 01</title>
  <rect
     width="595.28"
     height="600"
     id="rect856"
     clip-path="url(#clipPath923)" />
  <path
     class="cls-4"
     d="M418.92,281.31l5.64-20.05c1.8-6.39,3.57-12.78,5.43-19.15a1.81,1.81,0,0,1,1.28-1.07c8.34,0,16.67,0,25,0,.1,0,.19.08.41.18,0,.47.07,1,.07,1.53q0,31.29,0,62.59c0,1.53-.44,1.91-1.92,1.89-5.28-.09-10.57-.07-15.85,0-1.35,0-1.77-.36-1.73-1.75.38-12.9.68-25.8,1-38.7a1.29,1.29,0,0,0-.18-.82c-.75,2.59-1.52,5.18-2.25,7.77-3,10.68-6.07,21.36-9.05,32.05a1.64,1.64,0,0,1-1.91,1.45c-4-.06-8.07-.08-12.1,0-1.24,0-1.68-.47-2-1.58-2.45-8.86-4.95-17.72-7.44-26.57-1.19-4.24-2.4-8.47-3.47-12.24,0,3.86-.07,8.16,0,12.46q.24,13.07.64,26.13c0,1.31-.27,1.81-1.69,1.8-5.44-.08-10.89-.07-16.34,0-1.3,0-1.67-.4-1.67-1.68q0-31.47,0-62.92c0-1.3.39-1.66,1.68-1.65q11.61.09,23.21,0c1.25,0,1.68.46,2,1.55q5.37,18.84,10.8,37.66C418.61,280.41,418.7,280.66,418.92,281.31Z"
     id="path870"
     clip-path="url(#clipPath919)" />
  <path
     class="cls-4"
     d="M162.87,283.39v24.37h-22.2v-1.95q0-32.35,0-64.71c0-1.58.44-2,2-2,10.62.11,21.24,0,31.86.2,5.65.09,11.33.29,16.79,2.05,7.07,2.27,10.78,7,11.21,14.39a55.57,55.57,0,0,1-.07,8.16c-.45,4.93-3.69,7.93-7.7,10.28-.59.35-1.22.64-2,1.05,7.91,2,9.67,8.18,10.38,14.86.38,3.62.18,7.29.31,10.93.06,1.52-.26,3.22,1.64,4.09.28.13.4,1,.29,1.45a1.33,1.33,0,0,1-1,.65c-6.86,0-13.72-.06-20.59-.08-1.34,0-1.45-1-1.52-1.9-.25-2.93-.43-5.86-.6-8.8-.09-1.63-.18-3.26-.15-4.9,0-2.16-1.06-3.85-2.18-5.51a3.4,3.4,0,0,0-1.72-1.15C172.83,283.35,168,283.6,162.87,283.39Zm.35-15c3.89,0,7.53.05,11.16,0a14.5,14.5,0,0,0,3.68-.64,5.47,5.47,0,0,0,3.91-7c-.82-3.13-2.95-5-6.5-5.15s-7.4-.11-11.1-.06a1.49,1.49,0,0,0-1.1,1C163.19,260.39,163.22,264.35,163.22,268.37Z"
     id="path872"
     clip-path="url(#clipPath915)" />
  <path
     class="cls-4"
     d="M205.71,274.18a34,34,0,0,1,31.45-33.81c11.19-.81,20.6,2.88,28.39,10.92a1.69,1.69,0,0,1,.17,2.61,33.38,33.38,0,0,0,.35,39.65c1,1.34.79,2.07-.2,3.13-7.22,7.8-16.17,11.71-26.75,11.43A34,34,0,0,1,205.71,274.18Zm47.19-.3a21.51,21.51,0,0,0-4.18-12.9c-4.37-5.81-11.2-6.22-16.1-1-6.48,6.92-6.66,20.82-.36,27.91,5.25,5.9,12.43,5.4,16.91-1.17A22.48,22.48,0,0,0,252.9,273.88Z"
     id="path874"
     clip-path="url(#clipPath911)" />
  <path
     class="cls-4"
     d="M319.21,252.31a32,32,0,0,1,11.94-9.19c16.52-7.28,34.88-1.37,43.71,14.38a34,34,0,0,1-55.19,39c-.72-.81-.91-1.33-.16-2.33,9.4-12.57,9.47-28.3.27-41C319.59,252.93,319.43,252.65,319.21,252.31ZM358,274.12a23.51,23.51,0,0,0-3.86-12.73c-4.59-6.7-12.85-6.81-17.55-.2a23.17,23.17,0,0,0,0,25.8c4.49,6.31,11.89,6.65,16.85.68C356.64,283.78,357.76,279.12,358,274.12Z"
     id="path876"
     clip-path="url(#clipPath907)" />
  <path
     class="cls-4"
     d="M305.8,273.46c0,6-1.34,10.75-4.75,14.83a10.07,10.07,0,0,1-15.14,1c-7.73-7.17-7.69-23.34.07-30.24,4.86-4.31,11.07-3.81,15.22,1.24A20.23,20.23,0,0,1,305.8,273.46Z"
     id="path878"
     clip-path="url(#clipPath903)" />
  <text
     xml:space="preserve"
     style="font-style:normal;font-weight:normal;font-size:27.06375885px;line-height:1.25;font-family:sans-serif;letter-spacing:0px;word-spacing:0px;fill:#000000;fill-opacity:1;stroke:none;stroke-width:0.67659396"
     x="137.77034"
     y="342.76721"
     id="text895"
     clip-path="url(#clipPath899)"><tspan
       sodipodi:role="line"
       id="tspan893"
       x="137.77034"
       y="342.76721"
       style="font-style:normal;font-variant:normal;font-weight:bold;font-stretch:normal;font-family:sans-serif;-inkscape-font-specification:'sans-serif Bold';fill:#f9f9f9;stroke-width:0.67659396">MOBILE HAIR SALON</tspan></text>
</svg>
